<?xml version="1.0" encoding="UTF-8"?>
<svg width="20px" height="20px" viewBox="0 0 20 20" version="1.1" xmlns="http://www.w3.org/2000/svg" xmlns:xlink="http://www.w3.org/1999/xlink">
    <title>耗电量</title>
    <defs>
        <linearGradient x1="15.5954832%" y1="17.9558225%" x2="80.8468413%" y2="78.6250058%" id="linearGradient-1">
            <stop stop-color="#FF944A" offset="0%"></stop>
            <stop stop-color="#FF674A" offset="98.2298951%"></stop>
        </linearGradient>
    </defs>
    <g id="页面-1" stroke="none" stroke-width="1" fill="none" fill-rule="evenodd">
        <g id="首页" transform="translate(-437.000000, -701.000000)">
            <g id="1" transform="translate(224.000000, 623.000000)">
                <g id="耗电量" transform="translate(213.000000, 78.000000)">
                    <circle id="椭圆形" fill="url(#linearGradient-1)" cx="10" cy="10" r="10"></circle>
                    <g id="燃气" transform="translate(6.973425, 5.709341)" fill="#FFFFFF" fill-rule="nonzero">
                        <path d="M4.96464814,2.32197096 C5.01669441,2.58543535 5.00081589,2.85592953 4.91652249,3.13335162 C4.79027842,3.54851689 4.71284611,3.54851689 4.5787608,4.00005369 C4.55102239,3.96011632 4.37341816,3.67668325 4.52504826,3.13284222 C4.64158879,2.50362487 4.34175913,1.87155485 3.92538895,1.22308198 C3.52205484,0.593864627 2.92700226,0.119404588 2.36586307,0 L2.33802665,0 L2.34773019,0.0294436228 C2.53043123,0.989672497 2.0105566,1.49001032 1.39737113,2.04862411 C0.784185668,2.6077473 0.113857122,3.25163552 0.0114308414,4.50405924 C-0.120400113,6.15157766 0.918761058,7.31047458 1.54674687,7.84494255 C1.58409081,7.87438617 1.62202284,7.88437052 1.66377748,7.88437052 C1.72944791,7.88437052 1.78041602,7.85502877 1.81825003,7.80510706 C1.85331131,7.75072346 1.85699548,7.68077713 1.82785556,7.62273999 C1.33179871,6.27617818 2.34773019,5.40957799 2.67078954,5.17260267 C2.4037951,6.81197061 3.71504752,8.10076586 4.00742799,7.99379076 C5.20890296,7.55692483 5.98499032,6.67432931 6.1773949,5.48435868 C6.38283555,4.20829855 5.863451,2.79714416 5.00199207,2.33205718 L4.96464814,2.32197096 Z" id="路径"></path>
                    </g>
                </g>
            </g>
        </g>
    </g>
</svg>