<?xml version="1.0" encoding="UTF-8"?>
<svg width="20px" height="20px" viewBox="0 0 20 20" version="1.1" xmlns="http://www.w3.org/2000/svg" xmlns:xlink="http://www.w3.org/1999/xlink">
    <title>耗水量</title>
    <defs>
        <linearGradient x1="15.5954832%" y1="17.9558225%" x2="79.6918238%" y2="77.5510976%" id="linearGradient-1">
            <stop stop-color="#4AD8FF" offset="0%"></stop>
            <stop stop-color="#6CB6FF" offset="100%"></stop>
        </linearGradient>
    </defs>
    <g id="页面-1" stroke="none" stroke-width="1" fill="none" fill-rule="evenodd">
        <g id="首页" transform="translate(-635.000000, -701.000000)">
            <g id="1" transform="translate(224.000000, 623.000000)">
                <g id="耗水量" transform="translate(411.000000, 78.000000)">
                    <circle id="椭圆形" fill="url(#linearGradient-1)" cx="10" cy="10" r="10"></circle>
                    <g id="水滴" transform="translate(7.000000, 6.000000)" fill="#FFFFFF" fill-rule="nonzero">
                        <path d="M3,0 C3,0 0,2.8491931 0,5.21758487 C0,6.90038954 1.34210527,8 3,8 C4.65789473,8 6,6.90038954 6,5.21758487 C5.99561403,2.8491931 3,0 3,0 Z M1.97368421,3.95325543 C1.81578947,4.34501948 1.72807017,4.71007234 1.71052632,5.04396216 C1.69298246,5.39120757 1.74561404,5.71619366 1.86403509,6.01892042 L1.86403509,6.02337229 C1.91228071,6.14357262 1.82456141,6.27267669 1.69736842,6.26822482 L1.60964913,6.26377296 C1.53947369,6.25932109 1.47807018,6.21480245 1.45175438,6.14802448 C1.3245614,5.8096828 1.2631579,5.43572621 1.28070176,5.0261547 C1.29824562,4.62993879 1.40350878,4.22481915 1.56140351,3.8196995 C1.5877193,3.74846967 1.65789474,3.70395103 1.73245614,3.7084029 L1.81578947,3.71285476 C1.93859649,3.71285476 2.01754386,3.84195882 1.97368421,3.95325543 L1.97368421,3.95325543 Z" id="形状"></path>
                    </g>
                </g>
            </g>
        </g>
    </g>
</svg>