<?xml version="1.0" encoding="UTF-8"?>
<svg width="20px" height="20px" viewBox="0 0 20 20" version="1.1" xmlns="http://www.w3.org/2000/svg" xmlns:xlink="http://www.w3.org/1999/xlink">
    <title>耗蒸汽量</title>
    <defs>
        <linearGradient x1="15.5954832%" y1="17.9558225%" x2="79.2208361%" y2="77.1131843%" id="linearGradient-1">
            <stop stop-color="#6B99FF" offset="0%"></stop>
            <stop stop-color="#6D89FF" offset="100%"></stop>
        </linearGradient>
    </defs>
    <g id="页面-1" stroke="none" stroke-width="1" fill="none" fill-rule="evenodd">
        <g id="首页" transform="translate(-832.000000, -701.000000)">
            <g id="1" transform="translate(224.000000, 623.000000)">
                <g id="耗蒸汽量" transform="translate(608.000000, 78.000000)">
                    <circle id="椭圆形" fill="url(#linearGradient-1)" cx="10" cy="10" r="10"></circle>
                    <g id="气体" transform="translate(6.106927, 5.398503)" fill="#FFFFFF" fill-rule="nonzero">
                        <path d="M2.27786563,9.16994331 C2.13345487,9.16103093 2.0171181,9.07272815 2,8.9590357 L2,6.22545296 C2.00860326,6.1093024 2.12077865,6.01452001 2.2668246,6 C2.41376964,6.00680032 2.53368126,6.09546772 2.55205089,6.21090761 L2.55205089,8.94449034 C2.57009543,9.00490189 2.54546784,9.06830713 2.48764496,9.11030735 C2.42918259,9.14963795 2.35462796,9.1708323 2.27786563,9.16994331 Z M3.90503866,9.71592943 C3.80111255,9.68539156 3.72721405,9.61178628 3.71319795,9.52484991 L3.73159965,7.65235205 C3.7283125,7.57440374 3.7778852,7.50099036 3.8616442,7.45976603 C3.94540321,7.4185417 4.05062352,7.41576937 4.13766966,7.45249336 C4.22471581,7.48921734 4.28036341,7.55985839 4.28365056,7.6378067 L4.26708903,9.51030456 C4.29188342,9.5681206 4.26836516,9.63202258 4.2082036,9.67030344 C4.12574622,9.72889182 4.00896478,9.7464673 3.90503866,9.71592943 Z M5.71714273,8.82230938 C5.57049753,8.81619797 5.45040259,8.72800746 5.43191642,8.6128563 L5.43191642,7.55489819 C5.42830055,7.47694988 5.47756951,7.40339789 5.56116415,7.36194854 C5.6447588,7.32049919 5.74997911,7.31744963 5.83718961,7.35394859 C5.92440012,7.39044756 5.98035147,7.46094999 5.98396733,7.5388983 L5.98396733,8.59685641 C6.01909693,8.65569859 5.99491276,8.72599623 5.92692207,8.76267343 C5.86928553,8.80311705 5.79416526,8.8244722 5.71714273,8.82230938 Z" id="形状"></path>
                        <path d="M7.54185035,5.02432027 C7.28573857,5.22634846 6.95117926,5.33643064 6.60553849,5.33240094 C6.54876587,5.49156066 6.44000758,5.63290802 6.29252328,5.73921015 C5.98291655,5.98186669 5.548068,6.06235166 5.15178089,5.95034715 C4.75549377,5.83834263 4.45797353,5.55086478 4.37129317,5.19620373 C4.28461281,4.84154268 4.42194113,4.47357988 4.73154788,4.23092336 C4.87238127,4.11374088 5.0505351,4.03622336 5.24276049,4.00848674 C5.26312599,3.79784436 5.35176128,3.59655557 5.49836679,3.42801043 C5.42988837,3.38542849 5.36788516,3.33546818 5.31383818,3.27932285 C5.20496021,3.17452623 5.11840595,3.05368842 5.05823187,2.92247266 C4.6639692,3.09613486 4.21225467,3.14411447 3.78156723,3.05807573 C3.70778905,3.41322606 3.49709282,3.73587957 3.18424127,3.97280172 C2.99464081,4.1208752 2.77297386,4.23451321 2.53224016,4.30705139 C2.72608417,4.80341101 2.49437032,5.35011234 1.97658393,5.61805635 C1.45879755,5.88600036 0.796179548,5.80209771 0.387607587,5.41685548 C-0.0662442323,4.95909675 -0.0221358152,4.27080436 0.48738973,3.85979916 C0.150500324,3.53696421 -0.0240331592,3.11028934 0.00266877486,2.67482165 C0.0293707089,2.23935395 0.255090082,1.83126528 0.629545109,1.54146243 C1.13038907,1.14950944 1.83036752,1.01414428 2.47483126,1.18461224 C2.56518568,0.885547306 2.75263272,0.615466353 3.01474832,0.406678833 C3.36526826,0.126943993 3.83001903,-0.0188365672 4.3050167,0.0019542813 C4.78001437,0.0227451298 5.22561052,0.208371959 5.54210691,0.517302385 C5.74603072,0.712876532 5.88742535,0.951585833 5.9521705,1.20959175 C6.49917216,1.04523848 7.10605746,1.18644988 7.48580832,1.56644194 C7.9821946,2.03404182 7.9939805,2.75199426 7.51314589,3.23174283 L7.59925925,3.30668136 C7.86539183,3.53577891 8.01031181,3.85072896 7.99942833,4.17635622 C7.98854484,4.50198349 7.8228344,4.80907103 7.54185035,5.02432027 Z" id="路径"></path>
                    </g>
                </g>
            </g>
        </g>
    </g>
</svg>