<?xml version="1.0" encoding="UTF-8"?>
<svg width="24px" height="24px" viewBox="0 0 24 24" version="1.1" xmlns="http://www.w3.org/2000/svg" xmlns:xlink="http://www.w3.org/1999/xlink">
    <title>综合</title>
    <defs>
        <linearGradient x1="15.5954832%" y1="17.9558225%" x2="80.8468413%" y2="78.6250058%" id="linearGradient-1">
            <stop stop-color="#FF944A" offset="0%"></stop>
            <stop stop-color="#FF674A" offset="98.2298951%"></stop>
        </linearGradient>
    </defs>
    <g id="页面-1" stroke="none" stroke-width="1" fill="none" fill-rule="evenodd">
        <g id="首页" transform="translate(-295.000000, -273.000000)">
            <g id="1" transform="translate(224.000000, 190.000000)">
                <g id="综合" transform="translate(71.000000, 83.000000)">
                    <circle id="椭圆形" fill="url(#linearGradient-1)" cx="12" cy="12" r="12"></circle>
                    <path d="M16.0896819,15.464859 L16.0896819,15.5937093 C16.0884698,15.6602227 16.0787336,15.7261604 16.0607911,15.7893709 L15.6810834,18.5 L18.5,13.2505423 L16.4363715,13.2505423 C16.2197451,13.2159406 16.0640623,12.9919726 16.0814274,12.7399132 L16.0814274,12.6110629 C16.0820244,12.5394082 16.0931906,12.4683965 16.1144454,12.4010846 L16.494153,9.7 L13.7,14.9542299 L15.7636285,14.9542299 C15.9686436,15.004086 16.108832,15.2236338 16.0896819,15.464859 L16.0896819,15.464859 Z" id="路径" fill="#FFFFFF" fill-rule="nonzero"></path>
                    <path d="M12.5510395,17 C12.8137542,17.0374383 13,17.1827663 13,17.3503249 C13,17.5178834 12.8137542,17.6632114 12.5510395,17.7006497 C11.1849262,17.8953283 10.4916854,17.9959799 10,18.0050985 C9.42346464,18.0157908 9.0720413,17.9028178 7.4611281,17.7006497 C7.19289028,17.6669861 7,17.5204449 7,17.3503249 C7,17.1802048 7.19289028,17.0336636 7.4611281,17 L12.5510395,17 Z M11.4384557,13.6311719 C11.7219018,13.6846056 11.9228447,13.8920245 11.9228447,14.1311719 C11.9228447,14.3703194 11.7219018,14.5777383 11.4384557,14.6311719 L7.42036146,14.6311719 C7.13095637,14.5831257 6.92284466,14.3739753 6.92284466,14.1311719 C6.92284466,13.8883686 7.13095637,13.6792181 7.42036146,13.6311719 L11.4384557,13.6311719 Z M12.5,10.2088204 C12.7627147,10.2622541 12.9489605,10.469673 12.9489605,10.7088204 C12.9489605,10.9479678 12.7627147,11.1553868 12.5,11.2088204 L7.41008858,11.2088204 C7.14185076,11.1607742 6.94896049,10.9516237 6.94896049,10.7088204 C6.94896049,10.4660171 7.14185076,10.2568667 7.41008858,10.2088204 L12.5,10.2088204 Z M17.5578514,7 C17.8279395,7.02868384 18.0234118,7.25026389 17.9976676,7.49855907 C18.0236088,7.74645479 17.8302833,7.96845368 17.5609929,8 L7.44521854,8 C7.17339855,7.97130701 6.9765258,7.74844143 7.00226072,7.49855907 C6.97833442,7.24974502 7.17473188,7.02869523 7.44521854,7 L17.5578514,7 Z" id="形状结合" fill="#FFFFFF"></path>
                </g>
            </g>
        </g>
    </g>
</svg>